<svg width="24" height="24" viewBox="0 0 24 24" fill="none" xmlns="http://www.w3.org/2000/svg">
<path d="M6.01122 12.8814L16.1704 22.9333C16.4053 23.1659 16.719 23.2941 17.0534 23.2941C17.3879 23.2941 17.7016 23.1659 17.9365 22.9333L18.6847 22.1932C19.1715 21.7109 19.1715 20.9271 18.6847 20.4456L10.1538 12.0047L18.6941 3.55437C18.9291 3.32169 19.0588 3.01152 19.0588 2.68078C19.0588 2.34967 18.9291 2.0395 18.6941 1.80664L17.946 1.06674C17.7108 0.834065 17.3974 0.705883 17.0629 0.705883C16.7285 0.705883 16.4148 0.834065 16.1798 1.06674L6.01122 11.1278C5.7757 11.3612 5.64633 11.6728 5.64708 12.0041C5.64633 12.3367 5.7757 12.6482 6.01122 12.8814Z" fill="white"/>
</svg>
